<?xml version="1.0" encoding="utf-8"?>
<!-- Generator: Adobe Illustrator 27.1.1, SVG Export Plug-In . SVG Version: 6.00 Build 0)  -->
<svg version="1.1" id="Layer_1" xmlns="http://www.w3.org/2000/svg" xmlns:xlink="http://www.w3.org/1999/xlink" x="0px" y="0px"
	 viewBox="0 0 458.6 295.4" style="enable-background:new 0 0 458.6 295.4;" xml:space="preserve">
<style type="text/css">
	.st0{fill:#FFFFFF;}
</style>
<g>
	<path class="st0" d="M47.5,189.1c6.6-7.1,13.4-14.1,20.8-20.6c8.1-7.2,16.3-14.1,25-20.4c10.7-7.6,21.6-14.9,33-21.3
		c13.2-7.4,26.8-13.8,41-18.9c11.6-4.2,23.7-7.4,35.9-9.5c10.7-1.8,21.3-2.7,32.1-3c21.4-0.6,42.3,2.6,62.8,8.6
		c19.3,5.7,37.6,13.8,55.1,23.7c15.6,8.9,30.3,19.1,44.3,30.5c8.3,6.8,16,14.2,24,21.3c2.7,2.4,5.1,5.4,7.5,8.1
		c1.6,1.8,1.4,7.2-0.3,8.9c-13.6,14.1-27.8,27.5-43.8,39c-6.3,4.5-12.5,9.2-19.1,13.3c-12.2,7.6-24.7,15.1-38,20.6
		c-9.8,4.1-19.8,7.9-30.1,11.1c-10.3,3.2-20.8,5.3-31.3,7.1c-13.9,2.4-28.2,2.6-42.2,1.5c-17.3-1.3-34.2-5.1-50.8-10.7
		c-13.9-4.7-27.4-10.3-40.3-17.1c-16-8.4-31.2-18.4-45.6-29.5c-12.4-9.6-24.1-20-35-31.3c-1.7-1.7-4-2.6-5.2-4.8c0-0.2,0-0.5,0-0.7
		c0.8-0.5,0.8-1,0-1.5c0-0.7,0-1.5,0-2.2c0.5-0.2,0.5-0.5,0-0.7C47.5,190.1,47.5,189.6,47.5,189.1z M389.6,171
		c-0.3-0.2-0.5-0.4-0.8-0.6c-24.1-19.6-50.5-35.5-79.9-46.4c18.3,19.2,27.4,42.2,27.4,68.1c0,25.9-9.4,48.7-27.1,68.2
		c29.5-10.7,55.6-26.9,79.7-46.5c0.3-0.2,0.5-0.4,0.8-0.6c2.1-2,4.2-4.1,6.3-6.1c0.1,0,0.3,0,0.4,0c5.4-4,9.8-8.9,14.7-13.4
		c1.8-1.7,0.6-2.4-0.4-3.5C404,183.2,396.5,177.4,389.6,171z M168.9,124.7c0.3-0.2,0.6-0.3,0.9-0.5c-0.3-0.1-0.7-0.2-1-0.3
		c-5.9,1.3-11.3,3.8-16.7,6.5c-20.8,10-40.4,21.8-58.4,36.3c-9.2,7.4-18.3,14.9-26.6,23.4c-1.7,1.7-1.7,2.5,0,4.1
		c3.6,3.2,6.9,6.7,10.5,9.9c9.7,8.7,19.8,16.7,30.4,24.2c16.7,11.8,34.3,21.9,53.2,29.6c2.3,1,4.7,2.8,8.1,2.2
		c-3.2-3.7-6.2-6.6-8.6-10c-9.6-13.5-16.2-28.3-18.2-45c-1.7-14.3-1.2-28.5,3.5-42.3C150.8,148.4,158.2,135.6,168.9,124.7z
		 M319.2,210.8c1-6.8,2.6-13.5,2.1-20.4c-0.4-6.2-1.3-12.3-2.7-18.4c-3.5-15-11.2-27.7-21.8-38.4c-7.9-7.9-17.4-13.8-27.9-18
		c-6.3-2.5-13.2-2.7-19.2-5.8c-5.6,2.5-11.3-0.1-17,0.4c-14.2,1.4-27,5.6-39,13.1c-10.7,6.8-18.9,16.1-25.5,26.6
		c-5.8,9.2-9.3,19.2-10.6,30.1c-1.4,11.5-1.3,22.9,2.1,34.2c5.1,17.2,14.5,31.3,28.4,42.5c12.4,10,26.6,15.9,42.3,17.5
		c11.9,1.2,23.8,0,35.1-4.1c17.4-6.3,31.4-17.1,41.8-32.5c5.4-8,9.5-16.5,11.3-26.1C318.8,211.3,319,211,319.2,210.8z"/>
	<path class="st0" d="M47.5,193.6c0.8,0.5,0.8,1,0,1.5C47.5,194.6,47.5,194.1,47.5,193.6z"/>
	<path class="st0" d="M47.5,190.6c0.5,0.2,0.5,0.5,0,0.7C47.5,191.1,47.5,190.8,47.5,190.6z"/>
	<path class="st0" d="M141.9,37c-0.3-3.7,1-6.2,4.2-7.2c4.2-1.4,7.8,0.2,10,4c6.7,11.5,13.4,23,20.1,34.5c1.5,2.6,3.3,4.9,2.4,8.5
		c-0.9,3.4-2.9,5.1-5.8,5.9c-3.1,0.9-5.9-0.4-7.7-3.2c-2.6-4.2-5-8.5-7.5-12.8c-5-8.5-10-17-15-25.5C141.9,39.8,141.6,38.3,141.9,37
		z"/>
	<path class="st0" d="M231.6,34.7c0-6.9,0-13.7,0-20.6c0-6.4,1.7-8.1,6.8-8.6c5.7-0.5,8,3.1,8.1,8.8c0.2,7,0,14,0,20.9
		c0,6.7,0.1,13.5,0,20.2c-0.1,5.7-3.3,9.4-8,9.3c-4-0.1-6.9-2.9-6.9-6.9C231.6,50.2,231.6,42.5,231.6,34.7z"/>
	<path class="st0" d="M335.6,36.7c0.7,2.6-0.9,4.5-2.1,6.5c-6.8,11.6-13.5,23.2-20.2,34.8c-3.3,5.7-8.9,6.7-12.6,2.4
		c-2.4-2.7-2.5-5.9-0.8-8.8c7.4-13.1,14.9-26,22.4-39c1.5-2.6,5.8-3.9,9.3-2.6C334.6,31,336.4,33.1,335.6,36.7z"/>
	<path class="st0" d="M168.9,124.7c0-0.2-0.1-0.5-0.1-0.7c0.3,0.1,0.7,0.2,1,0.3C169.4,124.4,169.2,124.6,168.9,124.7z"/>
	<path class="st0" d="M389.6,171c-0.5,0.2-0.7-0.2-0.8-0.6C389,170.6,389.3,170.8,389.6,171z"/>
	<path class="st0" d="M395.8,207.1c0-0.2,0.1-0.4,0.1-0.6c0.1,0.2,0.2,0.4,0.3,0.6C396.1,207.1,396,207.1,395.8,207.1z"/>
	<path class="st0" d="M318.6,211.5c-0.1-0.5,0.2-0.7,0.6-0.8C319,211,318.8,211.3,318.6,211.5z"/>
	<path class="st0" d="M388.7,213.8c0.1-0.4,0.3-0.8,0.8-0.6C389.3,213.4,389,213.6,388.7,213.8z"/>
	<path class="st0" d="M201.8,192.4c-1-10.9,3.5-19.6,10.5-26.8c5.5-5.6,12.5-9.2,20.7-10.3c11.5-1.5,21.8,1.3,30.4,8.6
		c7.2,6.2,11.7,14.2,12.4,24.1c0.5,6.1,0.6,12.3-2.4,17.6c-3.4,6-6.4,11.9-12.8,16.2c-5.6,3.8-11.4,5.6-17.5,7.5
		c-0.8,0.2-2,0.7-2.5-0.6c-0.4-1-1.3-1-1.8-0.6c-4,3.2-8.2,1.1-11.8-0.3c-7.9-3-14.6-7.8-19.2-15
		C203.8,206.5,200.7,199.9,201.8,192.4z"/>
</g>
</svg>
