<?xml version="1.0" encoding="utf-8"?>
<!-- Generator: Adobe Illustrator 25.0.0, SVG Export Plug-In . SVG Version: 6.00 Build 0)  -->
<svg version="1.1" id="Layer_1" xmlns="http://www.w3.org/2000/svg" xmlns:xlink="http://www.w3.org/1999/xlink" x="0px" y="0px"
	 width="26.5px" height="24.5px" viewBox="0 0 26.5 24.5" style="enable-background:new 0 0 26.5 24.5;" xml:space="preserve">
<style type="text/css">
	.st0{fill:#FFFFFF;}
</style>
<g>
	<g>
		<path class="st0" d="M24.6,5.6h-3V0.7c0-0.4-0.4-0.7-0.7-0.7H5.6C5.2,0,4.8,0.4,4.8,0.7v4.8h-3C0.7,5.6,0,6.5,0,7.4v10.4
			c0,1.1,0.9,1.9,1.9,1.9h3v4.1c0,0.4,0.4,0.7,0.7,0.7h15.4c0.4,0,0.7-0.4,0.7-0.7v-4.1h3c1.1,0,1.9-0.9,1.9-1.9V7.4
			C26.5,6.3,25.8,5.6,24.6,5.6z M6.3,1.5H20v4.1H6.3V1.5z M20,22.8H6.3v-8H20V22.8z M24.8,17.8c0,0.2-0.2,0.2-0.2,0.2h-3v-4.1
			c0-0.4-0.4-0.7-0.7-0.7H5.6c-0.4,0-0.7,0.4-0.7,0.7V18h-3c-0.2,0-0.2-0.2-0.2-0.2V7.4c0-0.2,0.2-0.2,0.2-0.2h3.7h15.4h3.7
			c0.2,0,0.2,0.2,0.2,0.2V17.8L24.8,17.8z"/>
		<circle class="st0" cx="20.9" cy="10.2" r="1.1"/>
		<path class="st0" d="M16.9,16.5H9.5c-0.4,0-0.7,0.4-0.7,0.7c0,0.4,0.4,0.7,0.7,0.7h7.4c0.4,0,0.7-0.4,0.7-0.7
			C17.6,16.9,17.2,16.5,16.9,16.5z"/>
		<path class="st0" d="M16.9,19.6H9.5c-0.4,0-0.7,0.4-0.7,0.7c0,0.4,0.4,0.7,0.7,0.7h7.4c0.4,0,0.7-0.4,0.7-0.7
			C17.6,20,17.2,19.6,16.9,19.6z"/>
	</g>
</g>
<path class="st0" d="M-5.8,19.6v7h-21.3V-2.1h15.9v4.9c0,0.1,0,0.3,0.1,0.4s0.2,0.1,0.4,0.1h4.9V7h1.1V2.8c0-0.1,0-0.3-0.1-0.4
	L-10.2-3c-0.2-0.1-0.4-0.2-0.5-0.2h-17c-0.3,0-0.5,0.3-0.5,0.6v29.7c0,0.3,0.2,0.5,0.5,0.6h22.4c0.3,0,0.5-0.3,0.5-0.6v-7.5
	C-4.8,19.6-5.8,19.6-5.8,19.6z M-10.2-1.4l3.6,3.6h-3.6V-1.4z"/>
<g>
	<g>
		<path class="st0" d="M-2.7,9.8h-1.6V7.2c0-0.2-0.2-0.4-0.4-0.4H-13c-0.2,0-0.4,0.2-0.4,0.4v2.6H-15c-0.6,0-1,0.5-1,1v5.6
			c0,0.6,0.5,1,1,1h1.6v2.2c0,0.2,0.2,0.4,0.4,0.4h8.3c0.2,0,0.4-0.2,0.4-0.4v-2.2h1.6c0.6,0,1-0.5,1-1v-5.6
			C-1.7,10.2-2.1,9.8-2.7,9.8z M-12.6,7.6h7.4v2.2h-7.4V7.6z M-5.2,19.1h-7.4v-4.3h7.4V19.1z M-2.6,16.4c0,0.1-0.1,0.1-0.1,0.1h-1.6
			v-2.2c0-0.2-0.2-0.4-0.4-0.4H-13c-0.2,0-0.4,0.2-0.4,0.4v2.2H-15c-0.1,0-0.1-0.1-0.1-0.1v-5.6c0-0.1,0.1-0.1,0.1-0.1h2h8.3h2
			c0.1,0,0.1,0.1,0.1,0.1V16.4L-2.6,16.4z"/>
		<circle class="st0" cx="-4.7" cy="12.3" r="0.6"/>
		<path class="st0" d="M-6.9,15.7h-4c-0.2,0-0.4,0.2-0.4,0.4c0,0.2,0.2,0.4,0.4,0.4h4c0.2,0,0.4-0.2,0.4-0.4
			C-6.5,15.9-6.7,15.7-6.9,15.7z"/>
		<path class="st0" d="M-6.9,17.4h-4c-0.2,0-0.4,0.2-0.4,0.4s0.2,0.4,0.4,0.4h4c0.2,0,0.4-0.2,0.4-0.4S-6.7,17.4-6.9,17.4z"/>
	</g>
</g>
</svg>
