<?xml version="1.0" encoding="utf-8"?>
<!-- Generator: Adobe Illustrator 25.0.0, SVG Export Plug-In . SVG Version: 6.00 Build 0)  -->
<svg version="1.1" id="Layer_1" xmlns="http://www.w3.org/2000/svg" xmlns:xlink="http://www.w3.org/1999/xlink" x="0px" y="0px"
	 width="26.5px" height="24.5px" viewBox="0 0 26.5 24.5" style="enable-background:new 0 0 26.5 24.5;" xml:space="preserve">
<g>
	<g>
		<path d="M24.6,5.6h-3V0.7c0-0.4-0.4-0.7-0.7-0.7H5.6C5.2,0,4.8,0.4,4.8,0.7v4.8h-3c-1.1,0.1-1.8,1-1.8,1.9v10.4
			c0,1.1,0.9,1.9,1.9,1.9h3v4.1c0,0.4,0.4,0.7,0.7,0.7H21c0.4,0,0.7-0.4,0.7-0.7v-4.1h3c1.1,0,1.9-0.9,1.9-1.9V7.4
			C26.4,6.3,25.8,5.6,24.6,5.6z M6.3,1.5H20v4.1H6.3V1.5z M20,22.8H6.3v-8H20V22.8z M24.8,17.8c0,0.2-0.2,0.2-0.2,0.2h-3v-4.1
			c0-0.4-0.4-0.7-0.7-0.7H5.6c-0.4,0-0.7,0.4-0.7,0.7V18h-3c-0.2,0-0.2-0.2-0.2-0.2V7.4c0-0.2,0.2-0.2,0.2-0.2h3.7H21h3.7
			c0.2,0,0.2,0.2,0.2,0.2L24.8,17.8L24.8,17.8z"/>
		<circle cx="20.9" cy="10.2" r="1.1"/>
		<path d="M16.9,16.5H9.5c-0.4,0-0.7,0.4-0.7,0.7c0,0.4,0.4,0.7,0.7,0.7h7.4c0.4,0,0.7-0.4,0.7-0.7S17.2,16.5,16.9,16.5z"/>
		<path d="M16.9,19.6H9.5c-0.4,0-0.7,0.4-0.7,0.7c0,0.4,0.4,0.7,0.7,0.7h7.4c0.4,0,0.7-0.4,0.7-0.7S17.2,19.6,16.9,19.6z"/>
	</g>
</g>
</svg>
