<svg id="Layer_1" data-name="Layer 1" xmlns="http://www.w3.org/2000/svg" viewBox="0 0 26.52 30.87"><defs><style>.cls-1{fill:#fff;}</style></defs><path class="cls-1" d="M22.35,22.84v7H1.07V1.07H17V6a.47.47,0,0,0,.14.37.5.5,0,0,0,.36.14h4.87v3.7h1.07V6a.5.5,0,0,0-.14-.38L17.86.17A.58.58,0,0,0,17.48,0H.5A.54.54,0,0,0,0,.57V30.3a.54.54,0,0,0,.5.57H22.92a.54.54,0,0,0,.5-.57V22.84Zm-4.3-21,3.57,3.57H18.05Z"/><path class="cls-1" d="M9.2,23.46a4.53,4.53,0,0,1-3.37-4.41V14.54A4.51,4.51,0,0,1,10.28,10H22.06a4.52,4.52,0,0,1,4.46,4.55v4.51a4.51,4.51,0,0,1-4.46,4.55H14.62L9.2,28ZM22.06,11.29H10.28a3.21,3.21,0,0,0-3.16,3.25v4.51a3.21,3.21,0,0,0,2.8,3.23l.57.07v3l3.66-3h7.91a3.21,3.21,0,0,0,3.16-3.26V14.54a3.21,3.21,0,0,0-3.16-3.25Z"/><path class="cls-1" d="M9.51,17.56a2.45,2.45,0,0,0,1.08.31c.38,0,.54-.13.54-.34s-.13-.3-.6-.46c-.83-.28-1.15-.73-1.14-1.21,0-.75.64-1.32,1.64-1.32a2.79,2.79,0,0,1,1.14.23l-.23.87a1.92,1.92,0,0,0-.87-.24c-.3,0-.48.13-.48.33s.16.29.65.47c.77.26,1.09.65,1.1,1.24,0,.75-.59,1.3-1.75,1.3a2.79,2.79,0,0,1-1.3-.28Z"/><path class="cls-1" d="M13.1,15.91c0-.5,0-.93,0-1.28h1.06l.05.54h0a1.41,1.41,0,0,1,1.22-.63,1.13,1.13,0,0,1,1.1.68h0a1.81,1.81,0,0,1,.52-.48,1.46,1.46,0,0,1,.76-.2c.78,0,1.36.54,1.36,1.75v2.37H18V16.47c0-.59-.19-.93-.59-.93a.62.62,0,0,0-.58.44,1.13,1.13,0,0,0-.05.32v2.36H15.53V16.4c0-.51-.19-.86-.58-.86a.65.65,0,0,0-.59.46.84.84,0,0,0,0,.31v2.35H13.1V15.91Z"/><path class="cls-1" d="M20.17,17.56a2.45,2.45,0,0,0,1.08.31c.38,0,.53-.13.53-.34s-.12-.3-.59-.46c-.83-.28-1.15-.73-1.14-1.21,0-.75.64-1.32,1.63-1.32a2.79,2.79,0,0,1,1.14.23l-.22.87a2,2,0,0,0-.87-.24c-.31,0-.48.13-.48.33s.16.29.65.47c.77.26,1.09.65,1.1,1.24,0,.75-.6,1.3-1.75,1.3a2.76,2.76,0,0,1-1.3-.28Z"/></svg>