<?xml version="1.0" encoding="UTF-8"?>
<svg width="133px" height="35px" viewBox="0 0 133 35" version="1.1" xmlns="http://www.w3.org/2000/svg" xmlns:xlink="http://www.w3.org/1999/xlink">
    <title>Carseer En</title>
    <defs>
        <polygon id="path-1" points="0.705910435 0.991617391 16.4225974 0.991617391 16.4225974 22.4342217 0.705910435 22.4342217"></polygon>
        <polygon id="path-3" points="0.318573913 0.169831304 16.6914783 0.169831304 16.6914783 21.103727 0.318573913 21.103727"></polygon>
        <polygon id="path-5" points="0 0.991617391 20.7285052 0.991617391 20.7285052 14.6909687 0 14.6909687"></polygon>
    </defs>
    <g id="Carseer-En" stroke="none" stroke-width="1" fill="none" fill-rule="evenodd">
        <g id="Group-20" transform="translate(2.000000, 6.000000)">
            <path d="M50.3707983,5.29763739 L50.3707983,10.3376113 L53.5318591,10.3376113 C54.3081026,10.3376113 54.9194504,10.1087765 55.3659026,9.65335043 C55.8145983,9.19568087 56.0378243,8.59330696 56.0378243,7.8462287 C56.0378243,7.10139391 55.8089896,6.49004609 55.3501983,6.0144287 C54.8936504,5.53656783 54.2879113,5.29763739 53.5318591,5.29763739 L50.3707983,5.29763739 Z M50.3707983,14.21322 L50.3707983,22.3559243 L45.2713722,22.3559243 L45.2713722,1.4220287 L53.5318591,1.4220287 C55.9570591,1.4220287 57.8460678,2.04683739 59.1988852,3.29869826 C60.5517026,4.55280261 61.2269896,6.06490696 61.2269896,7.83164609 C61.2269896,9.04536783 60.8601809,10.2288026 60.1231983,11.3819504 C59.3873374,12.5350983 58.1837113,13.3506026 56.5145635,13.8273417 L61.6442765,22.3559243 L55.6799896,22.3559243 L50.96532,14.21322 L50.3707983,14.21322 Z" id="Fill-1" fill="#000000"></path>
            <g id="Group-5" transform="translate(62.817391, 0.130458)">
                <mask id="mask-2" fill="white">
                    <use xlink:href="#path-1"></use>
                </mask>
                <g id="Clip-4"></g>
                <path d="M8.25072783,5.01922174 C7.61358,5.01922174 7.09309304,5.18636087 6.68702348,5.52400435 C6.2775887,5.8638913 6.07567565,6.35072609 6.07567565,6.98675217 C6.07567565,7.62165652 6.26412783,8.1342913 6.64103217,8.52241304 C7.01905826,8.91165652 7.51038,9.20891739 8.11724087,9.41643913 C8.72298,9.62620435 9.40051043,9.82475217 10.1442235,10.0132043 C10.89018,10.2016565 11.6327713,10.4293696 12.3663887,10.698587 C13.1022496,10.9678043 13.7719278,11.3009609 14.3799104,11.6991783 C14.9856496,12.0962739 15.4769713,12.659387 15.8561191,13.3829087 C16.2341452,14.1109174 16.4225974,14.9780217 16.4225974,15.9931957 C16.4225974,17.7621783 15.7024409,19.2776478 14.2598843,20.5418478 C12.8184496,21.8026826 10.920467,22.4342217 8.56369304,22.4342217 C6.20804087,22.4342217 4.30781478,21.8688652 2.86862348,20.734787 C1.42606696,19.6018304 0.705910435,17.9921348 0.705910435,15.9023348 L6.13400609,15.9023348 C6.27198,17.5726043 7.12674522,18.4094217 8.69830174,18.4094217 C9.43416261,18.4094217 10.0096148,18.2153609 10.4269017,17.8249957 C10.8453104,17.4402391 11.0539539,16.9477957 11.0539539,16.3510304 C11.0539539,15.7542652 10.8655017,15.2674304 10.4852322,14.8894043 C10.111693,14.5113783 9.61812783,14.2141174 9.01126696,13.9942565 C8.40552783,13.7766391 7.72911913,13.5724826 6.98428435,13.3829087 C6.23944957,13.1955783 5.49798,12.9622565 4.76211913,12.6829435 C4.02738,12.4047522 3.35658,12.0715957 2.74859739,11.6823522 C2.14285826,11.2953522 1.65041478,10.7400913 1.27126696,10.0132043 C0.894362609,9.28743913 0.705910435,8.42706522 0.705910435,7.43432609 C0.705910435,5.48586522 1.43279739,3.92552609 2.88320609,2.75218696 C4.33361478,1.57884783 6.1889713,0.991056522 8.44591043,0.991056522 C10.7017278,0.991056522 12.5256757,1.5036913 13.9188757,2.52671739 C15.3087104,3.55086522 16.0344757,5.1672913 16.0950496,7.37599565 L10.5480496,7.37599565 C10.4672843,6.61994348 10.2227452,6.03776087 9.81667565,5.62832609 C9.40836261,5.22337826 8.88675391,5.01922174 8.25072783,5.01922174" id="Fill-3" fill="#000000" mask="url(#mask-2)"></path>
            </g>
            <g id="Group-8" transform="translate(112.173913, 1.252197)">
                <mask id="mask-4" fill="white">
                    <use xlink:href="#path-3"></use>
                </mask>
                <g id="Clip-7"></g>
                <path d="M5.41687826,4.04544 L5.41687826,9.08541391 L8.57906087,9.08541391 C9.35530435,9.08541391 9.96665217,8.85657913 10.4131043,8.40115304 C10.8618,7.94348348 11.0850261,7.34110957 11.0850261,6.5940313 C11.0850261,5.84919652 10.8561913,5.2378487 10.3974,4.7622313 C9.94197391,4.28437043 9.33286957,4.04544 8.57906087,4.04544 L5.41687826,4.04544 Z M5.41687826,12.9610226 L5.41687826,21.103727 L0.318573913,21.103727 L0.318573913,0.169831304 L8.57906087,0.169831304 C11.0053826,0.169831304 12.8932696,0.79464 14.2449652,2.04650087 C15.5955391,3.30060522 16.2730696,4.81270957 16.2730696,6.5794487 C16.2730696,7.79317043 15.9062609,8.97660522 15.1704,10.129753 C14.4334174,11.2829009 13.2320348,12.0984052 11.562887,12.5751443 L16.6926,21.103727 L10.7271913,21.103727 L6.01588696,12.9610226 L5.41687826,12.9610226 Z" id="Fill-6" fill="#000000" mask="url(#mask-4)"></path>
            </g>
            <g id="Group-11" transform="translate(0.000000, 0.130458)">
                <mask id="mask-6" fill="white">
                    <use xlink:href="#path-5"></use>
                </mask>
                <g id="Clip-10"></g>
                <path d="M5.18905304,11.6992904 C5.18905304,9.87085565 5.69047043,8.40698609 6.69667043,7.31441217 C7.69950522,6.22071652 9.07700087,5.67442957 10.8257922,5.67442957 C12.5757052,5.67442957 13.8477574,6.44169913 14.6453139,7.97062957 L20.7285052,7.97062957 C20.0128357,5.78436 18.7486357,4.07370783 16.9392704,2.84203826 C15.1299052,1.60812522 13.0636617,0.991168696 10.736053,0.991168696 C7.73315739,0.991168696 5.19466174,2.00073391 3.11720087,4.01762087 C1.03974,6.03787304 -0.000112173913,8.59768174 -0.000112173913,11.6992904 C-0.000112173913,12.7604557 0.12440087,13.7554383 0.366696522,14.6909687 L5.77572261,14.6909687 C5.38535739,13.8362035 5.18905304,12.8412209 5.18905304,11.6992904" id="Fill-9" fill="#000000" mask="url(#mask-6)"></path>
            </g>
            <polygon id="Fill-12" fill="#000000" points="27.9261443 14.8192957 29.9598574 14.8192957 32.3884226 7.50555652 34.8641009 14.9606348 34.8607357 14.9606348 37.3756748 22.3562609 42.7656313 22.3562609 35.5203183 1.36066957 29.3171009 1.36066957 24.6517878 14.8215391 25.8913096 14.8215391"></polygon>
            <path d="M32.7515296,17.268613 L28.170347,17.268613 L28.170347,17.2742217 L26.3699557,17.2742217 L22.5100513,17.2742217 L11.9197122,17.2742217 L1.00967739,17.2742217 C2.97832957,20.8088217 6.74288609,22.3287783 8.97290348,22.3557 L13.4822948,22.3557 L24.1735904,22.3557 L27.9325383,22.3557 L33.2293904,22.3557 L33.3494165,22.3557 L34.5070513,22.3557 L32.7515296,17.268613 Z" id="Fill-14" fill="#F79420"></path>
            <polygon id="Fill-16" fill="#000000" points="92.5597435 1.3463113 94.0539 5.22304174 86.7379174 5.22304174 86.7379174 9.72794609 91.8956739 9.72794609 93.4167522 13.6046765 86.7379174 13.6046765 86.7379174 18.4662939 92.8031609 18.4662939 94.3119 22.3419026 81.6373696 22.3419026 81.6373696 1.3463113"></polygon>
            <polygon id="Fill-18" fill="#000000" points="107.989153 1.3463113 109.481066 5.22304174 102.163962 5.22304174 102.163962 9.72794609 107.321718 9.72794609 108.843918 13.6046765 102.163962 13.6046765 102.163962 18.4662939 108.228083 18.4662939 109.739066 22.3419026 97.0645357 22.3419026 97.0645357 1.3463113"></polygon>
        </g>
    </g>
</svg>